<svg width="161" height="185" viewBox="0 0 161 185" fill="none" xmlns="http://www.w3.org/2000/svg">
<mask id="mask0_2037:245" style="mask-type:alpha" maskUnits="userSpaceOnUse" x="0" y="1" width="159" height="181">
<path d="M72.0181 1.28525C69.5716 1.43624 67.1384 1.80766 64.7602 2.41272C62.5886 2.96489 60.438 3.60853 58.2731 4.19156C38.1091 9.43107 22.7104 21.0993 11.7758 38.8843C1.89888 54.9445 -1.45573 72.3504 0.560772 90.9158C2.31229 107.039 9.54708 120.715 19.8396 132.898C28.9931 143.733 39.7804 152.702 51.6078 160.491C63.8762 168.57 76.9406 174.89 90.9505 179.268C94.4096 180.348 97.9632 181.003 101.512 181.68C102.271 181.825 103.097 181.964 103.62 181.187C104.05 180.55 103.881 179.892 103.595 179.285C103.288 178.636 102.857 178.053 102.399 177.499C100.046 174.657 98.3272 171.45 96.8802 168.076C95.176 164.098 95.7873 159.712 101.409 158.248C116.071 154.429 128.22 146.324 138.157 134.991C152.457 118.681 159.14 99.4925 158.008 77.8655C156.807 54.949 147.525 35.6419 130.201 20.546C115.076 7.36789 97.4992 1.10229 77.8939 1.10229C75.9543 1.10229 73.9972 1.16401 72.0181 1.28525Z" fill="white"/>
</mask>
<g mask="url(#mask0_2037:245)">
<path d="M163.627 -4.4082L163.624 76.5596L140.975 76.3884L140.744 76.3873C135.388 76.3873 130.13 77.8399 125.525 80.5952L119.998 83.9049L114.238 77.4001C113.774 76.8788 113.255 76.4049 112.691 75.9905C110.559 74.4222 107.946 73.7818 105.335 74.1852C102.723 74.5886 100.422 75.9872 98.8589 78.1242L95.2459 83.0617L90.3707 65.2183C89.5152 62.0827 87.0215 59.6801 83.8571 58.9494C81.568 58.4248 79.2106 58.8193 77.2183 60.0702C75.226 61.3201 73.8406 63.273 73.3139 65.5677L68.917 84.7359L66.21 72.5618C65.4304 69.0647 62.8202 66.2521 59.3996 65.2238C56.8652 64.46 54.1901 64.7311 51.8635 65.9876C49.5359 67.2429 47.8349 69.3303 47.0741 71.8685L43.8481 82.633L41.7073 76.1426C40.3626 72.0724 36.588 69.3391 32.312 69.3391H26.3878C23.3521 69.3391 20.8903 71.8057 20.8903 74.8498C20.8903 77.8939 23.3521 80.3604 26.3878 80.3604H31.5171L37.7865 99.3633C38.93 102.821 42.6694 104.708 46.1241 103.561C48.1637 102.885 49.7503 101.247 50.3671 99.1859L56.3935 79.0786L62.4112 106.136C62.7949 107.86 63.824 109.331 65.3128 110.279C66.3826 110.961 67.5986 111.311 68.8378 111.311C69.3194 111.311 69.8065 111.259 70.2881 111.151C72.7488 110.6 74.7081 108.652 75.2798 106.179L82.0726 76.5702L85.8451 90.3733C86.4641 92.6447 87.9308 94.5382 89.9715 95.7053C92.0122 96.8703 94.3839 97.169 96.65 96.5496C98.5565 96.0272 100.251 94.8578 101.421 93.2597L106.921 85.7421L111.776 91.223C115.28 95.1741 121.105 96.0757 125.634 93.3666L131.161 90.058C134.102 88.2979 137.41 87.3854 140.89 87.4096L163.624 87.5809L163.627 187.304H-5.4978V-4.4082H163.627Z" fill="#EBEBEB"/>
</g>
</svg>
